<?xml version="1.0" encoding="UTF-8" standalone="no"?>
<svg
   xmlns:dc="http://purl.org/dc/elements/1.1/"
   xmlns:cc="http://creativecommons.org/ns#"
   xmlns:rdf="http://www.w3.org/1999/02/22-rdf-syntax-ns#"
   xmlns:svg="http://www.w3.org/2000/svg"
   xmlns="http://www.w3.org/2000/svg"
   xmlns:sodipodi="http://sodipodi.sourceforge.net/DTD/sodipodi-0.dtd"
   xmlns:inkscape="http://www.inkscape.org/namespaces/inkscape"
   viewBox="0 0 512 512"
   height="512"
   width="512"
   xml:space="preserve"
   version="1.1"
   id="svg2"
   inkscape:version="0.91 r13725"
   sodipodi:docname="mindmap.svg"><sodipodi:namedview
     pagecolor="#ffffff"
     bordercolor="#666666"
     borderopacity="1"
     objecttolerance="10"
     gridtolerance="10"
     guidetolerance="10"
     inkscape:pageopacity="0"
     inkscape:pageshadow="2"
     inkscape:window-width="1920"
     inkscape:window-height="1031"
     id="namedview3878"
     showgrid="false"
     fit-margin-top="0"
     fit-margin-left="0"
     fit-margin-right="0"
     fit-margin-bottom="0"
     inkscape:zoom="0.87373737"
     inkscape:cx="242.39235"
     inkscape:cy="211.65366"
     inkscape:window-x="0"
     inkscape:window-y="1"
     inkscape:window-maximized="1"
     inkscape:current-layer="svg2" /><metadata
     id="metadata8"><rdf:RDF><cc:Work
         rdf:about=""><dc:format>image/svg+xml</dc:format><dc:type
           rdf:resource="http://purl.org/dc/dcmitype/StillImage" /><dc:title></dc:title></cc:Work></rdf:RDF></metadata><defs
     id="defs6"><clipPath
       id="clipPath66"
       clipPathUnits="userSpaceOnUse"><path
         id="path68"
         d="m 53.27484,19.39066 c 4.55829,-12.52367 4.55829,-26.25765 0,-38.78132 4.84766,13.3187 17.59218,16.60024 31.7656,16.60024 l 0,5.58084 c -14.17342,0 -26.91794,3.28154 -31.7656,16.60024 z m 31.7656,-22.18108 8.85841,0 0,5.58087 -8.85841,0 0,-5.58087 z M 111.767,10.90724 c -2.56403,-7.04455 -2.56403,-14.76993 0,-21.81448 -2.72681,7.49176 -9.8956,8.11682 -17.86814,8.11682 l 0,5.58084 c 7.97254,0 15.14133,0.62506 17.86814,8.11682 z"
         inkscape:connector-curvature="0" /></clipPath><clipPath
       id="clipPath86"
       clipPathUnits="userSpaceOnUse"><path
         id="path88"
         d="M 0,0 100,0 100,100 0,100 0,0 Z"
         inkscape:connector-curvature="0" /></clipPath><linearGradient
       id="linearGradient90"
       gradientUnits="userSpaceOnUse"
       y2="0"
       x2="100.00128"
       y1="0"
       x1="0"><stop
         id="stop92"
         offset="0"
         style="stop-opacity:1;stop-color:#000000" /><stop
         id="stop94"
         offset="1"
         style="stop-opacity:1;stop-color:#28794c" /></linearGradient><clipPath
       id="clipPath228"
       clipPathUnits="userSpaceOnUse"><path
         id="path230"
         d="M 43.5182,-36.59792 C 34.95169,-46.8073 23.05788,-53.6743 9.93309,-55.98859 c 13.95798,2.46122 23.17212,-6.93493 30.25882,-19.20929 l 4.83307,2.79042 c -7.0867,12.27436 -10.61711,24.95206 -1.50678,35.80954 z m 5.77729,-43.20613 -4.27051,7.39663 -4.83308,-2.79044 4.2705,-7.39661 4.83309,2.79042 z m 15.96334,-11.41563 c -7.38267,-1.30179 -14.07298,-5.16449 -18.89161,-10.90722 5.12456,6.10731 2.08146,12.62812 -1.90482,19.53243 l 4.83307,2.79041 c 3.98628,-6.90431 8.112,-12.80005 15.96336,-11.41562 z"
         inkscape:connector-curvature="0" /></clipPath><clipPath
       id="clipPath248"
       clipPathUnits="userSpaceOnUse"><path
         id="path250"
         d="M 0,0 100,0 100,100 0,100 0,0 Z"
         inkscape:connector-curvature="0" /></clipPath><linearGradient
       id="linearGradient252"
       gradientUnits="userSpaceOnUse"
       y2="0"
       x2="100.00128"
       y1="0"
       x1="0"><stop
         id="stop254"
         offset="0"
         style="stop-opacity:1;stop-color:#000000" /><stop
         id="stop256"
         offset="1"
         style="stop-opacity:1;stop-color:#313975" /></linearGradient><clipPath
       id="clipPath364"
       clipPathUnits="userSpaceOnUse"><path
         id="path366"
         d="m -9.93309,-55.98859 c -13.12479,2.31429 -25.0186,9.18129 -33.58511,19.39067 9.11033,-10.85748 5.57992,-23.53518 -1.50678,-35.80954 l 4.83307,-2.79042 c 7.0867,12.27436 16.30084,21.67051 30.25882,19.20929 z m -34.5293,-26.60589 4.27051,7.3966 -4.83308,2.79044 -4.27051,-7.39662 4.83308,-2.79042 z m -1.90483,-19.53242 c -4.81863,5.74273 -11.50894,9.60543 -18.89161,10.90722 7.85136,-1.38443 11.97708,4.51131 15.96336,11.41562 l 4.83307,-2.79041 c -3.98628,-6.90431 -7.02938,-13.42512 -1.90482,-19.53243 z"
         inkscape:connector-curvature="0" /></clipPath><clipPath
       id="clipPath384"
       clipPathUnits="userSpaceOnUse"><path
         id="path386"
         d="M 0,0 100,0 100,100 0,100 0,0 Z"
         inkscape:connector-curvature="0" /></clipPath><linearGradient
       id="linearGradient388"
       gradientUnits="userSpaceOnUse"
       y2="0"
       x2="100.00128"
       y1="0"
       x1="0"><stop
         id="stop390"
         offset="0"
         style="stop-opacity:1;stop-color:#000000" /><stop
         id="stop392"
         offset="1"
         style="stop-opacity:1;stop-color:#943156" /></linearGradient><clipPath
       id="clipPath474"
       clipPathUnits="userSpaceOnUse"><path
         id="path476"
         d="m -43.5182,36.59792 c 8.56651,10.20938 20.46032,17.07638 33.58511,19.39067 -13.95798,-2.46122 -23.17212,6.93493 -30.25882,19.20929 l -4.83307,-2.79042 c 7.0867,-12.27436 10.61711,-24.95206 1.50678,-35.80954 z m -5.77729,43.20613 4.27051,-7.39663 4.83308,2.79044 -4.2705,7.39661 -4.83309,-2.79042 z m -15.96334,11.41563 c 7.38267,1.30179 14.07298,5.16449 18.89161,10.90722 -5.12456,-6.10731 -2.08146,-12.62812 1.90482,-19.53243 l -4.83307,-2.79041 c -3.98628,6.90431 -8.112,12.80005 -15.96336,11.41562 z"
         inkscape:connector-curvature="0" /></clipPath><clipPath
       id="clipPath494"
       clipPathUnits="userSpaceOnUse"><path
         id="path496"
         d="M 0,0 100,0 100,100 0,100 0,0 Z"
         inkscape:connector-curvature="0" /></clipPath><linearGradient
       id="linearGradient498"
       gradientUnits="userSpaceOnUse"
       y2="0"
       x2="100.00128"
       y1="0"
       x1="0"><stop
         id="stop500"
         offset="0"
         style="stop-opacity:1;stop-color:#000000" /><stop
         id="stop502"
         offset="1"
         style="stop-opacity:1;stop-color:#aa6e39" /></linearGradient></defs><g
     transform="matrix(1.25,0,0,-1.25,-183.59897,849.13824)"
     id="g10"><g
       transform="translate(316.171,511.966)"
       id="g12"><g
         id="g14"><g
           id="g16"><g
             id="g18"><g
               id="g20"><g
                 id="g22"><path
                   id="path24"
                   style="fill:#000000;fill-opacity:1;fill-rule:nonzero;stroke:#000000;stroke-width:1.19553006;stroke-linecap:butt;stroke-linejoin:miter;stroke-miterlimit:10;stroke-dasharray:none;stroke-opacity:1"
                   d="M 56.69363,0 C 56.69363,31.31142 31.31142,56.69363 0,56.69363 -31.31142,56.69363 -56.69363,31.31142 -56.69363,0 c 0,-31.31142 25.38221,-56.69363 56.69363,-56.69363 31.31142,0 56.69363,25.38221 56.69363,56.69363 z"
                   inkscape:connector-curvature="0" /></g><g
                 transform="translate(-49.607,-4.151)"
                 id="g26"><g
                   transform="translate(8.64,0)"
                   id="g28"><g
                     transform="translate(-275.204,-507.815)"
                     id="g30"><text
                       id="text32"
                       style="font-variant:normal;font-weight:normal;font-size:11.9552002px;font-family:Chalkboard;-inkscape-font-specification:Chalkboard;writing-mode:lr-tb;fill:#ffffff;fill-opacity:1;fill-rule:nonzero;stroke:none"
                       transform="matrix(1,0,0,-1,275.204,507.815)"><tspan
                         id="tspan34"
                         y="0"
                         x="0 6.5036287 15.278746 22.592937 28.446203 34.949833 38.201645 44.860691 49.413231 54.616135 59.819038 66.32267 72.175934">SNLab.Freedom</tspan></text>
<g
                       transform="translate(266.564,507.815)"
                       id="g36" /></g></g><g
                   transform="translate(49.607,4.151)"
                   id="g38" /></g></g><g
               id="g40"><g
                 id="g42"><g
                   id="g44"><path
                     id="path46"
                     style="fill:#28794c;fill-opacity:1;fill-rule:nonzero;stroke:#28794c;stroke-width:1.19553006;stroke-linecap:butt;stroke-linejoin:miter;stroke-miterlimit:10;stroke-dasharray:none;stroke-opacity:1"
                     d="m 173.62427,0 c 0,17.61267 -14.27748,31.89015 -31.89017,31.89015 -17.61267,0 -31.89017,-14.27748 -31.89017,-31.89015 0,-17.61267 14.2775,-31.89015 31.89017,-31.89015 17.61269,0 31.89017,14.27748 31.89017,31.89015 z"
                     inkscape:connector-curvature="0" /></g><g
                   transform="translate(113.386,-2.241)"
                   id="g48"><g
                     transform="translate(8.3,0)"
                     id="g50"><g
                       transform="translate(-437.857,-509.725)"
                       id="g52"><text
                         id="text54"
                         style="font-variant:normal;font-weight:normal;font-size:8.96640015px;font-family:Chalkboard;-inkscape-font-specification:Chalkboard;writing-mode:lr-tb;fill:#ffffff;fill-opacity:1;fill-rule:nonzero;stroke:none"
                         transform="matrix(1,0,0,-1,437.857,509.725)"><tspan
                           id="tspan56"
                           y="0"
                           x="0 7.0386238 11.138062 15.741412 19.840851 22.400757 27.008591 32.388432 36.487869">Developer</tspan></text>
<g
                         transform="translate(429.557,509.725)"
                         id="g58" /></g></g><g
                     transform="translate(-113.386,2.241)"
                     id="g60" /></g></g><g
                 id="g62"><g
                   clip-path="url(#clipPath66)"
                   id="g64"><g
                     transform="translate(56.69363,0)"
                     id="g70"><path
                       id="path72"
                       style="fill:#000000;fill-opacity:1;fill-rule:nonzero;stroke:none"
                       d="m 0.99628,56.70085 -57.68991,0 0,-113.4017 57.68991,0 0,113.4017 z"
                       inkscape:connector-curvature="0" /><path
                       id="path74"
                       style="fill:#28794c;fill-opacity:1;fill-rule:nonzero;stroke:none"
                       d="m 52.15402,56.70085 32.88645,0 0,-113.4017 -32.88645,0 0,113.4017 z"
                       inkscape:connector-curvature="0" /><g
                       transform="matrix(0.53156,0,0,1.134,26.57808,0)"
                       id="g76"><g
                         id="g78"><g
                           transform="translate(-50,-50)"
                           id="g80"><g
                             id="g82"><g
                               clip-path="url(#clipPath86)"
                               id="g84"><path
                                 id="path96"
                                 style="fill:url(#linearGradient90);stroke:none"
                                 d="M 0,0 100,0 100,100 0,100 0,0 Z"
                                 inkscape:connector-curvature="0" /></g></g></g></g></g></g></g></g><g
                 id="g98"><g
                   id="g100"><g
                     id="g102"><path
                       id="path104"
                       style="fill:#28794c;fill-opacity:1;fill-rule:nonzero;stroke:#28794c;stroke-width:1.19553006;stroke-linecap:butt;stroke-linejoin:miter;stroke-miterlimit:10;stroke-dasharray:none;stroke-opacity:1"
                       d="m 166.53755,82.2056 c 0,13.69874 -11.1047,24.80346 -24.80345,24.80346 -13.69875,0 -24.80345,-11.10472 -24.80345,-24.80346 0,-13.69875 11.1047,-24.80345 24.80345,-24.80345 13.69875,0 24.80345,11.1047 24.80345,24.80345 z"
                       inkscape:connector-curvature="0" /></g><g
                     transform="translate(120.472,80.257)"
                     id="g106"><g
                       transform="translate(7.946,0)"
                       id="g108"><g
                         transform="translate(-444.589,-592.223)"
                         id="g110"><text
                           id="text112"
                           style="font-variant:normal;font-weight:normal;font-size:7.97009993px;font-family:Chalkboard;-inkscape-font-specification:Chalkboard;writing-mode:lr-tb;fill:#ffffff;fill-opacity:1;fill-rule:nonzero;stroke:none"
                           transform="matrix(1,0,0,-1,444.589,592.223)"><tspan
                             id="tspan114"
                             y="0"
                             x="0 4.7047501 9.1743822 12.514651 15.807897 19.571377">System</tspan></text>
<g
                           transform="translate(436.643,592.223)"
                           id="g116" /></g></g><g
                       transform="translate(-120.472,-80.257)"
                       id="g118" /></g></g><g
                   id="g120"><path
                     id="path122"
                     style="fill:#28794c;fill-opacity:1;fill-rule:nonzero;stroke:none"
                     d="m 130.82684,29.96709 c 7.04456,2.56402 14.76996,2.56402 21.81452,0 -7.49176,2.72681 -8.73693,9.89561 -8.73693,17.86815 l -4.34065,0 c 0,-7.97254 -1.24516,-15.14134 -8.73694,-17.86815 z m 8.73693,15.03332 0,2.83483 4.34066,0 0,-2.83483 -4.34066,0 z m -6.31308,13.89746 c 5.47909,-1.99424 11.48773,-1.99424 16.96682,0 -5.8269,-2.12085 -6.31308,-7.69657 -6.31308,-13.89746 l -4.34065,0 c 0,6.20089 -0.48618,11.77661 -6.31309,13.89746 z"
                     inkscape:connector-curvature="0" /></g></g><g
                 id="g124"><g
                   id="g126"><g
                     id="g128"><path
                       id="path130"
                       style="fill:#28794c;fill-opacity:1;fill-rule:nonzero;stroke:#28794c;stroke-width:1.19553006;stroke-linecap:butt;stroke-linejoin:miter;stroke-miterlimit:10;stroke-dasharray:none;stroke-opacity:1"
                       d="m 237.7299,41.1028 c 0,13.69874 -11.10472,24.80345 -24.80346,24.80345 -13.69875,0 -24.80345,-11.10471 -24.80345,-24.80345 0,-13.69875 11.1047,-24.80345 24.80345,-24.80345 13.69874,0 24.80346,11.1047 24.80346,24.80345 z"
                       inkscape:connector-curvature="0" /></g><g
                     transform="translate(191.664,39.154)"
                     id="g132"><g
                       transform="translate(5.2,0)"
                       id="g134"><g
                         transform="translate(-513.035,-551.12)"
                         id="g136"><text
                           id="text138"
                           style="font-variant:normal;font-weight:normal;font-size:7.97009993px;font-family:Chalkboard;-inkscape-font-specification:Chalkboard;writing-mode:lr-tb;fill:#ffffff;fill-opacity:1;fill-rule:nonzero;stroke:none"
                           transform="matrix(1,0,0,-1,513.035,551.12)"><tspan
                             id="tspan140"
                             y="0"
                             x="0 5.7591944 9.0596123 13.294127 17.528641 20.82906 25.063574">Program</tspan></text>
<g
                           transform="translate(507.835,551.12)"
                           id="g142" /></g></g><g
                       transform="translate(-191.664,-39.154)"
                       id="g144" /></g></g><g
                   id="g146"><path
                     id="path148"
                     style="fill:#28794c;fill-opacity:1;fill-rule:nonzero;stroke:none"
                     d="m 162.32072,24.48018 c 5.74258,-4.81885 9.60503,-11.50926 10.90658,-18.89195 -1.38416,7.85139 4.20167,12.51391 11.10612,16.49994 l -2.17017,3.7591 c -6.90445,-3.98602 -13.73538,-6.49186 -19.84253,-1.36709 z m 17.22938,-0.14148 2.61314,1.50857 2.17018,-3.75912 -2.61314,-1.50859 -2.17018,3.75914 z m 8.87922,12.41559 c 1.01232,-5.7421 4.01644,-10.94576 8.48288,-14.69374 -4.74997,3.98591 -9.82179,1.61926 -15.19192,-1.48099 l -2.17017,3.75912 c 5.37012,3.10024 9.95578,6.30898 8.87921,12.41561 z"
                     inkscape:connector-curvature="0" /></g></g><g
                 id="g150"><g
                   id="g152"><g
                     id="g154"><path
                       id="path156"
                       style="fill:#28794c;fill-opacity:1;fill-rule:nonzero;stroke:#28794c;stroke-width:1.19553006;stroke-linecap:butt;stroke-linejoin:miter;stroke-miterlimit:10;stroke-dasharray:none;stroke-opacity:1"
                       d="m 237.7299,-41.1028 c 0,13.69875 -11.10472,24.80345 -24.80346,24.80345 -13.69875,0 -24.80345,-11.1047 -24.80345,-24.80345 0,-13.69874 11.1047,-24.80345 24.80345,-24.80345 13.69874,0 24.80346,11.10471 24.80346,24.80345 z"
                       inkscape:connector-curvature="0" /></g><g
                     transform="translate(191.664,-43.094)"
                     id="g158"><g
                       transform="translate(0.949,0)"
                       id="g160"><g
                         transform="translate(-508.784,-468.872)"
                         id="g162"><text
                           id="text164"
                           style="font-variant:normal;font-weight:normal;font-size:7.97009993px;font-family:Chalkboard;-inkscape-font-specification:Chalkboard;writing-mode:lr-tb;fill:#ffffff;fill-opacity:1;fill-rule:nonzero;stroke:none"
                           transform="matrix(1,0,0,-1,508.784,468.872)"><tspan
                             id="tspan166"
                             y="0"
                             x="0 5.7591944 10.463944 12.815921 15.167897 19.402411 22.74268 26.977194 31.681944 36.147591">Philosophy</tspan></text>
<g
                           transform="translate(507.835,468.872)"
                           id="g168" /></g></g><g
                       transform="translate(-191.664,43.094)"
                       id="g170" /></g></g><g
                   id="g172"><path
                     id="path174"
                     style="fill:#28794c;fill-opacity:1;fill-rule:nonzero;stroke:none"
                     d="m 173.2273,-5.58823 c -1.30155,-7.38269 -5.164,-14.0731 -10.90658,-18.89195 6.10715,5.12477 12.93808,2.61893 19.84253,-1.36709 l 2.17017,3.7591 c -6.90445,3.98603 -12.49028,8.64855 -11.10612,16.49994 z m 8.49299,-14.99131 2.61315,-1.50859 -2.17019,-3.75913 -2.61314,1.50858 2.17018,3.75914 z m 15.19191,-1.48101 c -4.46644,-3.74798 -7.47056,-8.95164 -8.48288,-14.69374 1.07657,6.10663 -3.50909,9.31537 -8.87921,12.41561 l 2.17017,3.75912 c 5.37013,-3.10025 10.44195,-5.4669 15.19192,-1.48099 z"
                     inkscape:connector-curvature="0" /></g></g><g
                 id="g176"><g
                   id="g178"><g
                     id="g180"><path
                       id="path182"
                       style="fill:#28794c;fill-opacity:1;fill-rule:nonzero;stroke:#28794c;stroke-width:1.19553006;stroke-linecap:butt;stroke-linejoin:miter;stroke-miterlimit:10;stroke-dasharray:none;stroke-opacity:1"
                       d="m 166.53755,-82.2056 c 0,13.69875 -11.1047,24.80345 -24.80345,24.80345 -13.69875,0 -24.80345,-11.1047 -24.80345,-24.80345 0,-13.69874 11.1047,-24.80346 24.80345,-24.80346 13.69875,0 24.80345,11.10472 24.80345,24.80346 z"
                       inkscape:connector-curvature="0" /></g><g
                     transform="translate(120.472,-84.972)"
                     id="g184"><g
                       transform="translate(11.973,0)"
                       id="g186"><g
                         transform="translate(-448.616,-426.994)"
                         id="g188"><text
                           id="text190"
                           style="font-variant:normal;font-weight:normal;font-size:7.97009993px;font-family:Chalkboard;-inkscape-font-specification:Chalkboard;writing-mode:lr-tb;fill:#ffffff;fill-opacity:1;fill-rule:nonzero;stroke:none"
                           transform="matrix(1,0,0,-1,448.616,426.994)"><tspan
                             id="tspan192"
                             y="0"
                             x="0 6.3426056 10.57712 14.101498">Hack</tspan></text>
<g
                           transform="translate(436.643,426.994)"
                           id="g194" /></g></g><g
                       transform="translate(-120.472,84.972)"
                       id="g196" /></g></g><g
                   id="g198"><path
                     id="path200"
                     style="fill:#28794c;fill-opacity:1;fill-rule:nonzero;stroke:none"
                     d="m 152.64136,-29.96709 c -7.04456,-2.56402 -14.76996,-2.56402 -21.81452,0 7.49178,-2.72681 8.73694,-9.89561 8.73694,-17.86815 l 4.34065,0 c 0,7.97254 1.24517,15.14134 8.73693,17.86815 z m -8.73691,-15.03332 0,-2.83483 -4.34067,0 0,2.83483 4.34067,0 z m 6.31306,-13.89746 c -5.47909,1.99424 -11.48773,1.99424 -16.96682,0 5.82691,2.12085 6.31309,7.69657 6.31309,13.89746 l 4.34065,0 c 0,-6.20089 0.48618,-11.77661 6.31308,-13.89746 z"
                     inkscape:connector-curvature="0" /></g></g></g><g
               id="g202"><g
                 id="g204"><g
                   id="g206"><path
                     id="path208"
                     style="fill:#313975;fill-opacity:1;fill-rule:nonzero;stroke:#313975;stroke-width:1.19553006;stroke-linecap:butt;stroke-linejoin:miter;stroke-miterlimit:10;stroke-dasharray:none;stroke-opacity:1"
                     d="m 102.7572,-122.74568 c 0,17.61268 -14.27748,31.89017 -31.89017,31.89017 -17.61267,0 -31.89015,-14.27749 -31.89015,-31.89017 0,-17.61267 14.27748,-31.89015 31.89015,-31.89015 17.61269,0 31.89017,14.27748 31.89017,31.89015 z"
                     inkscape:connector-curvature="0" /></g><g
                   transform="translate(42.519,-124.935)"
                   id="g210"><g
                     transform="translate(10.965,0)"
                     id="g212"><g
                       transform="translate(-369.655,-387.031)"
                       id="g214"><text
                         id="text216"
                         style="font-variant:normal;font-weight:normal;font-size:8.96640015px;font-family:Chalkboard;-inkscape-font-specification:Chalkboard;writing-mode:lr-tb;fill:#ffffff;fill-opacity:1;fill-rule:nonzero;stroke:none"
                         transform="matrix(1,0,0,-1,369.655,387.031)"><tspan
                           id="tspan218"
                           y="0"
                           x="0 7.0386238 11.138062 14.773041 17.332949 21.940781 27.060595 31.160034">Designer</tspan></text>
<g
                         transform="translate(358.69,387.031)"
                         id="g220" /></g></g><g
                     transform="translate(-42.519,124.935)"
                     id="g222" /></g></g><g
                 id="g224"><g
                   clip-path="url(#clipPath228)"
                   id="g226"><g
                     transform="translate(28.43677,-49.25397)"
                     id="g232"><path
                       id="path234"
                       style="fill:#000000;fill-opacity:1;fill-rule:nonzero;stroke:none"
                       d="M 49.75952,27.57414 20.82303,77.69365 -77.69658,20.81427 -48.76009,-29.30522 49.75952,27.57414 Z"
                       inkscape:connector-curvature="0" /><path
                       id="path236"
                       style="fill:#313975;fill-opacity:1;fill-rule:nonzero;stroke:none"
                       d="m 75.36285,-16.77217 16.49541,-28.57088 -98.51959,-56.87939 -16.49541,28.57089 98.51959,56.87938 z"
                       inkscape:connector-curvature="0" /><g
                       transform="matrix(0.26605,-0.46082,0.98518,0.56879,13.30276,-23.04105)"
                       id="g238"><g
                         id="g240"><g
                           transform="translate(-50,-50)"
                           id="g242"><g
                             id="g244"><g
                               clip-path="url(#clipPath248)"
                               id="g246"><path
                                 id="path258"
                                 style="fill:url(#linearGradient252);stroke:none"
                                 d="M 0,0 100,0 100,100 0,100 0,0 Z"
                                 inkscape:connector-curvature="0" /></g></g></g></g></g></g></g></g><g
                 id="g260"><g
                   id="g262"><g
                     id="g264"><path
                       id="path266"
                       style="fill:#313975;fill-opacity:1;fill-rule:nonzero;stroke:#313975;stroke-width:1.19553006;stroke-linecap:butt;stroke-linejoin:miter;stroke-miterlimit:10;stroke-dasharray:none;stroke-opacity:1"
                       d="m 175.07512,-144.0221 c 0,13.69875 -11.10472,24.80347 -24.80347,24.80347 -13.69875,0 -24.80345,-11.10472 -24.80345,-24.80347 0,-13.69874 11.1047,-24.80345 24.80345,-24.80345 13.69875,0 24.80347,11.10471 24.80347,24.80345 z"
                       inkscape:connector-curvature="0" /></g><g
                     transform="translate(129.01,-146.743)"
                     id="g268"><g
                       transform="translate(14.791,0)"
                       id="g270"><g
                         transform="translate(-459.972,-365.223)"
                         id="g272"><text
                           id="text274"
                           style="font-variant:normal;font-weight:normal;font-size:7.97009993px;font-family:Chalkboard;-inkscape-font-specification:Chalkboard;writing-mode:lr-tb;fill:#ffffff;fill-opacity:1;fill-rule:nonzero;stroke:none"
                           transform="matrix(1,0,0,-1,459.972,365.223)"><tspan
                             id="tspan276"
                             y="0"
                             x="0 6.3426056 9.6430244">Art</tspan></text>
<g
                           transform="translate(445.181,365.223)"
                           id="g278" /></g></g><g
                       transform="translate(-129.01,146.743)"
                       id="g280" /></g></g><g
                   id="g282"><path
                     id="path284"
                     style="fill:#313975;fill-opacity:1;fill-rule:nonzero;stroke:none"
                     d="m 102.69644,-119.98187 c 0.65336,-7.46802 -1.34613,-14.93009 -5.64601,-21.07088 4.57286,6.53064 11.81957,5.87793 19.52034,3.81448 l 1.12343,4.19267 c -7.70078,2.06347 -14.30292,5.1216 -14.99776,13.06373 z m 12.15201,-12.30118 2.84575,-0.76253 -1.12343,-4.19269 -2.84575,0.76253 1.12343,4.19269 z m 15.05768,2.50096 c -3.34435,-4.77618 -4.89951,-10.58001 -4.39134,-16.38847 -0.54042,6.17721 -5.80027,8.08992 -11.78977,9.69482 l 1.12343,4.19267 c 5.9895,-1.6049 11.50099,-2.5784 15.05768,2.50098 z"
                     inkscape:connector-curvature="0" /></g></g><g
                 id="g286"><g
                   id="g288"><g
                     id="g290"><path
                       id="path292"
                       style="fill:#313975;fill-opacity:1;fill-rule:nonzero;stroke:#313975;stroke-width:1.19553006;stroke-linecap:butt;stroke-linejoin:miter;stroke-miterlimit:10;stroke-dasharray:none;stroke-opacity:1"
                       d="m 136.7733,-193.93802 c 0,13.69875 -11.1047,24.80347 -24.80345,24.80347 -13.69875,0 -24.80347,-11.10472 -24.80347,-24.80347 0,-13.69874 11.10472,-24.80345 24.80347,-24.80345 13.69875,0 24.80345,11.10471 24.80345,24.80345 z"
                       inkscape:connector-curvature="0" /></g><g
                     transform="translate(90.708,-196.703)"
                     id="g294"><g
                       transform="translate(14.264,0)"
                       id="g296"><g
                         transform="translate(-421.143,-315.263)"
                         id="g298"><text
                           id="text300"
                           style="font-variant:normal;font-weight:normal;font-size:7.97009993px;font-family:Chalkboard;-inkscape-font-specification:Chalkboard;writing-mode:lr-tb;fill:#ffffff;fill-opacity:1;fill-rule:nonzero;stroke:none"
                           transform="matrix(1,0,0,-1,421.143,315.263)"><tspan
                             id="tspan302"
                             y="0"
                             x="0 5.2889585 7.6409349 10.228827">Life</tspan></text>
<g
                           transform="translate(406.879,315.263)"
                           id="g304" /></g></g><g
                       transform="translate(-90.708,196.703)"
                       id="g306" /></g></g><g
                   id="g308"><path
                     id="path310"
                     style="fill:#313975;fill-opacity:1;fill-rule:nonzero;stroke:none"
                     d="m 95.34723,-143.3323 c -4.81885,-5.74256 -11.50926,-9.60502 -18.89195,-10.90658 7.85139,1.38416 12.51392,-4.20167 16.49994,-11.10612 l 3.7591,2.17018 c -3.98602,6.90445 -6.49186,13.73538 -1.36709,19.84252 z m -0.1415,-17.22936 1.50859,-2.61314 -3.75912,-2.1702 -1.50859,2.61314 3.75912,2.1702 z m 12.41561,-8.87923 c -5.7421,-1.01231 -10.94576,-4.01645 -14.69376,-8.48289 3.98593,4.74998 1.61928,9.82181 -1.48097,15.19192 l 3.75911,2.17018 c 3.10025,-5.37013 6.30898,-9.95579 12.41562,-8.87921 z"
                     inkscape:connector-curvature="0" /></g></g><g
                 id="g312"><g
                   id="g314"><g
                     id="g316"><path
                       id="path318"
                       style="fill:#313975;fill-opacity:1;fill-rule:nonzero;stroke:#313975;stroke-width:1.19553006;stroke-linecap:butt;stroke-linejoin:miter;stroke-miterlimit:10;stroke-dasharray:none;stroke-opacity:1"
                       d="m 74.39409,-202.15028 c 0,13.69874 -11.10472,24.80345 -24.80347,24.80345 -13.69874,0 -24.80345,-11.10471 -24.80345,-24.80345 0,-13.69876 11.10471,-24.80347 24.80345,-24.80347 13.69875,0 24.80347,11.10471 24.80347,24.80347 z"
                       inkscape:connector-curvature="0" /></g><g
                     transform="translate(28.33,-204.87)"
                     id="g320"><g
                       transform="translate(8.85,0)"
                       id="g322"><g
                         transform="translate(-353.351,-307.096)"
                         id="g324"><text
                           id="text326"
                           style="font-variant:normal;font-weight:normal;font-size:7.97009993px;font-family:Chalkboard;-inkscape-font-specification:Chalkboard;writing-mode:lr-tb;fill:#ffffff;fill-opacity:1;fill-rule:nonzero;stroke:none"
                           transform="matrix(1,0,0,-1,353.351,307.096)"><tspan
                             id="tspan328"
                             y="0"
                             x="0 6.4645481 9.764967 13.528448 17.762962">Dream</tspan></text>
<g
                           transform="translate(344.501,307.096)"
                           id="g330" /></g></g><g
                       transform="translate(-28.33,204.87)"
                       id="g332" /></g></g><g
                   id="g334"><path
                     id="path336"
                     style="fill:#313975;fill-opacity:1;fill-rule:nonzero;stroke:none"
                     d="m 73.63084,-154.57507 c -7.46801,-0.65335 -14.93008,1.34613 -21.07087,5.64601 6.53063,-4.57286 5.87793,-11.81957 3.81448,-19.52034 l 4.19267,-1.12343 c 2.06346,7.70077 5.1216,14.30292 13.06372,14.99776 z m -12.30117,-12.15201 -0.76253,-2.84575 -4.19269,1.12343 0.76253,2.84575 4.19269,-1.12343 z m 2.50096,-15.05768 c -4.77619,3.34435 -10.58002,4.89951 -16.38848,4.39133 6.1772,0.54043 8.08992,5.80028 9.69483,11.78978 l 4.19267,-1.12343 c -1.6049,-5.9895 -2.5784,-11.50099 2.50098,-15.05768 z"
                     inkscape:connector-curvature="0" /></g></g></g><g
               id="g338"><g
                 id="g340"><g
                   id="g342"><path
                     id="path344"
                     style="fill:#943156;fill-opacity:1;fill-rule:nonzero;stroke:#943156;stroke-width:1.19553006;stroke-linecap:butt;stroke-linejoin:miter;stroke-miterlimit:10;stroke-dasharray:none;stroke-opacity:1"
                     d="m -38.97688,-122.74568 c 0,17.61268 -14.27748,31.89017 -31.89015,31.89017 -17.61269,0 -31.89017,-14.27749 -31.89017,-31.89017 0,-17.61267 14.27748,-31.89015 31.89017,-31.89015 17.61267,0 31.89015,14.27748 31.89015,31.89015 z"
                     inkscape:connector-curvature="0" /></g><g
                   transform="translate(-99.213,-125.807)"
                   id="g346"><g
                     transform="translate(11.296,0)"
                     id="g348"><g
                       transform="translate(-228.254,-386.159)"
                       id="g350"><text
                         id="text352"
                         style="font-variant:normal;font-weight:normal;font-size:8.96640015px;font-family:Chalkboard;-inkscape-font-specification:Chalkboard;writing-mode:lr-tb;fill:#ffffff;fill-opacity:1;fill-rule:nonzero;stroke:none"
                         transform="matrix(1,0,0,-1,228.254,386.159)"><tspan
                           id="tspan354"
                           y="0"
                           x="0 5.1198144 9.2156658 11.775573 15.875011 20.7348 24.31867 26.878578 30.513556">Scientist</tspan></text>
<g
                         transform="translate(216.958,386.159)"
                         id="g356" /></g></g><g
                     transform="translate(99.213,125.807)"
                     id="g358" /></g></g><g
                 id="g360"><g
                   clip-path="url(#clipPath364)"
                   id="g362"><g
                     transform="translate(-28.43677,-49.25397)"
                     id="g368"><path
                       id="path370"
                       style="fill:#000000;fill-opacity:1;fill-rule:nonzero;stroke:none"
                       d="M 48.76009,-29.30522 77.69658,20.81427 -20.82303,77.69365 -49.75952,27.57414 48.76009,-29.30522 Z"
                       inkscape:connector-curvature="0" /><path
                       id="path372"
                       style="fill:#943156;fill-opacity:1;fill-rule:nonzero;stroke:none"
                       d="m 23.15674,-73.65155 -16.49541,-28.57089 -98.51959,56.87939 16.49541,28.57088 98.51959,-56.87938 z"
                       inkscape:connector-curvature="0" /><g
                       transform="matrix(-0.26605,-0.46082,0.98518,-0.56879,-13.30276,-23.04105)"
                       id="g374"><g
                         id="g376"><g
                           transform="translate(-50,-50)"
                           id="g378"><g
                             id="g380"><g
                               clip-path="url(#clipPath384)"
                               id="g382"><path
                                 id="path394"
                                 style="fill:url(#linearGradient388);stroke:none"
                                 d="M 0,0 100,0 100,100 0,100 0,0 Z"
                                 inkscape:connector-curvature="0" /></g></g></g></g></g></g></g></g><g
                 id="g396"><g
                   id="g398"><g
                     id="g400"><path
                       id="path402"
                       style="fill:#943156;fill-opacity:1;fill-rule:nonzero;stroke:#943156;stroke-width:1.19553006;stroke-linecap:butt;stroke-linejoin:miter;stroke-miterlimit:10;stroke-dasharray:none;stroke-opacity:1"
                       d="m -46.06358,-204.9513 c 0,13.69877 -11.10471,24.80347 -24.80345,24.80347 -13.69875,0 -24.80347,-11.1047 -24.80347,-24.80347 0,-13.69874 11.10472,-24.80345 24.80347,-24.80345 13.69874,0 24.80345,11.10471 24.80345,24.80345 z"
                       inkscape:connector-curvature="0" /></g><g
                     transform="translate(-92.126,-207.716)"
                     id="g404"><g
                       transform="translate(4.827,0)"
                       id="g406"><g
                         transform="translate(-228.872,-304.25)"
                         id="g408"><text
                           id="text410"
                           style="font-variant:normal;font-weight:normal;font-size:7.97009993px;font-family:Chalkboard;-inkscape-font-specification:Chalkboard;writing-mode:lr-tb;fill:#ffffff;fill-opacity:1;fill-rule:nonzero;stroke:none"
                           transform="matrix(1,0,0,-1,228.872,304.25)"><tspan
                             id="tspan412"
                             y="0"
                             x="0 6.2294302 9.9929113 13.33318 17.096661 21.331175 24.631594 28.163942">Research</tspan></text>
<g
                           transform="translate(224.045,304.25)"
                           id="g414" /></g></g><g
                       transform="translate(92.126,207.716)"
                       id="g416" /></g></g><g
                   id="g418"><path
                     id="path420"
                     style="fill:#943156;fill-opacity:1;fill-rule:nonzero;stroke:none"
                     d="m -59.9598,-152.71277 c -7.04453,-2.56403 -14.76994,-2.56403 -21.81449,0 7.49176,-2.72682 8.73692,-9.89561 8.73692,-17.86815 l 4.34065,0 c 0,7.97254 1.24517,15.14133 8.73692,17.86815 z m -8.7369,-15.03333 0,-2.83482 -4.34067,0 0,2.83482 4.34067,0 z m 6.31308,-13.89745 c -5.4791,1.99425 -11.48775,1.99425 -16.96684,0 5.82692,2.12085 6.31309,7.69657 6.31309,13.89745 l 4.34065,0 c 0,-6.20088 0.48618,-11.7766 6.3131,-13.89745 z"
                     inkscape:connector-curvature="0" /></g></g><g
                 id="g422"><g
                   id="g424"><g
                     id="g426"><path
                       id="path428"
                       style="fill:#943156;fill-opacity:1;fill-rule:nonzero;stroke:#943156;stroke-width:1.19553006;stroke-linecap:butt;stroke-linejoin:miter;stroke-miterlimit:10;stroke-dasharray:none;stroke-opacity:1"
                       d="m -117.25592,-163.84848 c 0,13.69875 -11.10471,24.80345 -24.80345,24.80345 -13.69875,0 -24.80347,-11.1047 -24.80347,-24.80345 0,-13.69875 11.10472,-24.80345 24.80347,-24.80345 13.69874,0 24.80345,11.1047 24.80345,24.80345 z"
                       inkscape:connector-curvature="0" /></g><g
                     transform="translate(-163.318,-165.794)"
                     id="g430"><g
                       transform="translate(4.969,0)"
                       id="g432"><g
                         transform="translate(-157.822,-346.172)"
                         id="g434"><text
                           id="text436"
                           style="font-variant:normal;font-weight:normal;font-size:7.97009993px;font-family:Chalkboard;-inkscape-font-specification:Chalkboard;writing-mode:lr-tb;fill:#ffffff;fill-opacity:1;fill-rule:nonzero;stroke:none"
                           transform="matrix(1,0,0,-1,157.822,346.172)"><tspan
                             id="tspan438"
                             y="0"
                             x="0 5.7591944 10.463944 14.698459 17.050434 21.755184 25.518665 29.282146">Engineer</tspan></text>
<g
                           transform="translate(152.853,346.172)"
                           id="g440" /></g></g><g
                       transform="translate(163.318,165.794)"
                       id="g442" /></g></g><g
                   id="g444"><path
                     id="path446"
                     style="fill:#943156;fill-opacity:1;fill-rule:nonzero;stroke:none"
                     d="m -91.45366,-147.22586 c -5.74257,4.81885 -9.60503,11.50926 -10.90657,18.89195 1.38416,-7.85139 -4.20167,-12.51391 -11.10612,-16.49994 l 2.17016,-3.75911 c 6.90445,3.98601 13.73539,6.49187 19.84253,1.3671 z m -17.22937,0.14148 -2.61314,-1.50858 -2.17018,3.75913 2.61314,1.50859 2.17018,-3.75914 z m -8.87923,-12.41559 c -1.01231,5.7421 -4.01643,10.94576 -8.48289,14.69374 4.74998,-3.98593 9.82181,-1.61926 15.19194,1.48099 l 2.17017,-3.75913 c -5.37014,-3.10025 -9.95578,-6.30897 -8.87922,-12.4156 z"
                     inkscape:connector-curvature="0" /></g></g></g><g
               id="g448"><g
                 id="g450"><g
                   id="g452"><path
                     id="path454"
                     style="fill:#aa6e39;fill-opacity:1;fill-rule:nonzero;stroke:#aa6e39;stroke-width:1.19553006;stroke-linecap:butt;stroke-linejoin:miter;stroke-miterlimit:10;stroke-dasharray:none;stroke-opacity:1"
                     d="m -38.97688,122.74568 c 0,17.61267 -14.27748,31.89015 -31.89015,31.89015 -17.61269,0 -31.89017,-14.27748 -31.89017,-31.89015 0,-17.61268 14.27748,-31.89017 31.89017,-31.89017 17.61267,0 31.89015,14.27749 31.89015,31.89017 z"
                     inkscape:connector-curvature="0" /></g><g
                   transform="translate(-99.213,120.503)"
                   id="g456"><g
                     transform="translate(12.59,0)"
                     id="g458"><g
                       transform="translate(-229.548,-632.469)"
                       id="g460"><text
                         id="text462"
                         style="font-variant:normal;font-weight:normal;font-size:8.96640015px;font-family:Chalkboard;-inkscape-font-specification:Chalkboard;writing-mode:lr-tb;fill:#ffffff;fill-opacity:1;fill-rule:nonzero;stroke:none"
                         transform="matrix(1,0,0,-1,229.548,632.469)"><tspan
                           id="tspan464"
                           y="0"
                           x="0 5.1198144 10.499655 14.590126 19.19796 23.810276 27.909714">Speaker</tspan></text>
<g
                         transform="translate(216.958,632.469)"
                         id="g466" /></g></g><g
                     transform="translate(99.213,-120.503)"
                     id="g468" /></g></g><g
                 id="g470"><g
                   clip-path="url(#clipPath474)"
                   id="g472"><g
                     transform="translate(-28.43677,49.25397)"
                     id="g478"><path
                       id="path480"
                       style="fill:#000000;fill-opacity:1;fill-rule:nonzero;stroke:none"
                       d="m -49.75952,-27.57414 28.93649,-50.11951 98.51961,56.87938 -28.93649,50.11949 -98.51961,-56.87936 z"
                       inkscape:connector-curvature="0" /><path
                       id="path482"
                       style="fill:#aa6e39;fill-opacity:1;fill-rule:nonzero;stroke:none"
                       d="M -75.36285,16.77217 -91.85826,45.34305 6.66133,102.22244 23.15674,73.65155 -75.36285,16.77217 Z"
                       inkscape:connector-curvature="0" /><g
                       transform="matrix(-0.26605,0.46082,-0.98518,-0.56879,-13.30276,23.04105)"
                       id="g484"><g
                         id="g486"><g
                           transform="translate(-50,-50)"
                           id="g488"><g
                             id="g490"><g
                               clip-path="url(#clipPath494)"
                               id="g492"><path
                                 id="path504"
                                 style="fill:url(#linearGradient498);stroke:none"
                                 d="M 0,0 100,0 100,100 0,100 0,0 Z"
                                 inkscape:connector-curvature="0" /></g></g></g></g></g></g></g></g></g></g></g></g></g></g></svg>
